<svg width="21" height="21" viewBox="0 0 21 21" fill="none" xmlns="http://www.w3.org/2000/svg">
<path d="M7.31941 17.7223V4.44925L19.5715 1.38623V14.6593M7.31941 17.7223C7.31941 18.8501 5.94804 19.7644 4.25638 19.7644C2.56472 19.7644 1.19336 18.8501 1.19336 17.7223C1.19336 16.5946 2.56472 15.6803 4.25638 15.6803C5.94804 15.6803 7.31941 16.5946 7.31941 17.7223ZM19.5715 14.6593C19.5715 15.7871 18.2001 16.7013 16.5085 16.7013C14.8168 16.7013 13.4454 15.7871 13.4454 14.6593C13.4454 13.5316 14.8168 12.6173 16.5085 12.6173C18.2001 12.6173 19.5715 13.5316 19.5715 14.6593ZM7.31941 8.53328L19.5715 5.47026" stroke="#323232" stroke-width="2.19225" stroke-linecap="round" stroke-linejoin="round"/>
</svg>
