<svg width="80" height="64" viewBox="0 0 80 64" fill="none" xmlns="http://www.w3.org/2000/svg">
<path d="M45.9259 20.8696C45.9259 19.7689 46.2735 18.6929 46.9246 17.7777C47.5758 16.8625 48.5013 16.1492 49.5841 15.728C50.6669 15.3068 51.8584 15.1965 53.0079 15.4113C54.1575 15.626 55.2134 16.1561 56.0421 16.9344C56.8709 17.7127 57.4353 18.7043 57.6639 19.7838C57.8926 20.8634 57.7752 21.9824 57.3267 22.9993C56.8782 24.0162 56.1186 24.8854 55.1441 25.4969C54.1696 26.1084 53.0239 26.4348 51.8518 26.4348C50.2802 26.4348 48.7729 25.8484 47.6616 24.8048C46.5503 23.7611 45.9259 22.3456 45.9259 20.8696ZM80 6.95652V57.0435C80 58.8885 79.2196 60.6579 77.8304 61.9625C76.4413 63.2671 74.5572 64 72.5926 64H7.40741C5.44284 64 3.55874 63.2671 2.16958 61.9625C0.780421 60.6579 0 58.8885 0 57.0435V6.95652C0 5.11154 0.780421 3.34212 2.16958 2.03752C3.55874 0.732917 5.44284 0 7.40741 0H72.5926C74.5572 0 76.4413 0.732917 77.8304 2.03752C79.2196 3.34212 80 5.11154 80 6.95652ZM8.88889 8.34783V36.0765L21.4296 24.2991C22.8187 22.995 24.7025 22.2624 26.6667 22.2624C28.6308 22.2624 30.5146 22.995 31.9037 24.2991L47.1518 38.6087L53.5148 32.6365C54.9039 31.3324 56.7877 30.5997 58.7519 30.5997C60.716 30.5997 62.5998 31.3324 63.9889 32.6365L71.1111 39.3357V8.34783H8.88889ZM8.88889 55.6522H52.7185L26.6667 31.1861L8.88889 47.8817V55.6522ZM71.1111 55.6522V51.1304L58.7519 39.5235L53.437 44.5217L65.2889 55.6522H71.1111Z" fill="#339455"/>
</svg>
