<svg width="15" height="19" viewBox="0 0 15 19" fill="none" xmlns="http://www.w3.org/2000/svg">
<path fill-rule="evenodd" clip-rule="evenodd" d="M0.694336 2.69424C0.694336 1.4255 1.72286 0.396973 2.9916 0.396973H8.25899C8.86827 0.396973 9.45258 0.639005 9.8834 1.06983L13.8051 4.99151C14.2359 5.42233 14.4779 6.00665 14.4779 6.61592V16.4778C14.4779 17.7466 13.4494 18.7751 12.1807 18.7751H2.9916C1.72286 18.7751 0.694336 17.7466 0.694336 16.4778V2.69424ZM2.9916 9.58604C2.9916 8.95167 3.50586 8.43741 4.14024 8.43741H11.032C11.6664 8.43741 12.1807 8.95167 12.1807 9.58604C12.1807 10.2204 11.6664 10.7347 11.032 10.7347H4.14024C3.50586 10.7347 2.9916 10.2204 2.9916 9.58604ZM4.14024 13.0319C3.50586 13.0319 2.9916 13.5462 2.9916 14.1806C2.9916 14.8149 3.50586 15.3292 4.14024 15.3292H11.032C11.6664 15.3292 12.1807 14.8149 12.1807 14.1806C12.1807 13.5462 11.6664 13.0319 11.032 13.0319H4.14024Z" fill="#323232"/>
</svg>
