<svg width="40" height="46" viewBox="0 0 40 46" fill="none" xmlns="http://www.w3.org/2000/svg">
<path d="M7.09677 1.5H24.3064V13.9109C24.3064 14.8236 24.7043 15.6685 25.3613 16.269C26.0138 16.8655 26.8721 17.1801 27.7419 17.1801H38.5V39.5128C38.5 40.7898 37.9463 42.045 36.9094 42.9928C35.868 43.9448 34.4289 44.5 32.9032 44.5H7.09677C5.57111 44.5 4.13204 43.9448 3.09064 42.9928C2.05374 42.045 1.5 40.7898 1.5 39.5128V6.48718C1.5 5.21019 2.05374 3.95503 3.09064 3.0072C4.13204 2.05525 5.57111 1.5 7.09677 1.5ZM30.1226 23.0008C29.4701 22.4044 28.6118 22.0897 27.7419 22.0897H12.2581C11.3882 22.0897 10.5299 22.4044 9.87743 23.0008C9.22045 23.6013 8.82258 24.4462 8.82258 25.359C8.82258 26.2717 9.22045 27.1166 9.87743 27.7172C10.5299 28.3136 11.3882 28.6282 12.2581 28.6282H27.7419C28.6118 28.6282 29.4701 28.3136 30.1226 27.7172C30.7796 27.1166 31.1774 26.2717 31.1774 25.359C31.1774 24.4462 30.7795 23.6013 30.1226 23.0008ZM30.1226 32.4367C29.4701 31.8403 28.6118 31.5256 27.7419 31.5256H12.2581C11.3882 31.5256 10.5299 31.8403 9.87743 32.4367C9.22045 33.0372 8.82258 33.8821 8.82258 34.7949C8.82258 35.7076 9.22045 36.5525 9.87743 37.1531C10.5299 37.7495 11.3882 38.0641 12.2581 38.0641H27.7419C28.6118 38.0641 29.4701 37.7495 30.1226 37.1531C30.7796 36.5525 31.1774 35.7076 31.1774 34.7949C31.1774 33.8821 30.7796 33.0372 30.1226 32.4367Z" stroke="#EF5A3C" stroke-width="3"/>
</svg>
