<svg width="19" height="17" viewBox="0 0 19 17" fill="none" xmlns="http://www.w3.org/2000/svg">
<path fill-rule="evenodd" clip-rule="evenodd" d="M0.332031 2.8002C0.332031 1.53145 1.36055 0.50293 2.6293 0.50293H11.8184C13.0871 0.50293 14.1156 1.53145 14.1156 2.8002V14.2865C14.1156 15.5553 15.1442 16.5838 16.4129 16.5838H2.6293C1.36055 16.5838 0.332031 15.5553 0.332031 14.2865V2.8002ZM3.77793 3.94883H10.6697V8.54337H3.77793V3.94883ZM10.6697 10.8406H3.77793V13.1379H10.6697V10.8406Z" fill="#323232"/>
<path d="M15.2643 5.09746H16.4129C17.6816 5.09746 18.7102 6.12599 18.7102 7.39473V13.7122C18.7102 14.6638 17.9388 15.4352 16.9872 15.4352C16.0357 15.4352 15.2643 14.6638 15.2643 13.7122V5.09746Z" fill="#323232"/>
</svg>
